<svg width="48" height="48" fill="none" xmlns="http://www.w3.org/2000/svg"><path d="M24.12 27.453a3.213 3.213 0 00-1.453 6.067v3.813h2.666V33.64a3.214 3.214 0 00-1.213-6.187z" fill="#fff" fill-opacity=".8"/><path d="M34.667 20v-5.707A10.933 10.933 0 0024 3.147a10.933 10.933 0 00-10.667 11.146V20h-4v22.667A2.667 2.667 0 0012 45.333h24a2.667 2.667 0 002.667-2.666V20h-4zM16 14.293a8.267 8.267 0 018-8.48 8.267 8.267 0 018 8.48V20H16v-5.707zm-4 28.374v-20h24v20H12z" fill="#fff" fill-opacity=".8"/></svg>