<svg width="18" height="17" fill="none" xmlns="http://www.w3.org/2000/svg"><path d="M9.043.292c1.608 0 3.042.336 4.302 1.008a7.21 7.21 0 012.97 2.808c.708 1.2 1.062 2.574 1.062 4.122 0 1.524-.264 2.718-.792 3.582-.528.852-1.26 1.278-2.196 1.278-.588 0-1.068-.174-1.44-.522-.36-.348-.558-.828-.594-1.44a3.829 3.829 0 01-1.476 1.458c-.624.336-1.332.504-2.124.504a4.48 4.48 0 01-2.286-.594 4.475 4.475 0 01-1.602-1.674c-.384-.708-.576-1.506-.576-2.394 0-.888.192-1.68.576-2.376.396-.708.93-1.26 1.602-1.656a4.48 4.48 0 012.286-.594c.768 0 1.458.168 2.07.504a3.774 3.774 0 011.494 1.386V3.874h1.17v6.822c0 .48.102.828.306 1.044.204.216.474.324.81.324.564 0 1.008-.336 1.332-1.008.336-.672.504-1.608.504-2.808 0-1.392-.312-2.616-.936-3.672a6.401 6.401 0 00-2.628-2.484c-1.116-.588-2.394-.882-3.834-.882-1.452 0-2.742.306-3.87.918a6.448 6.448 0 00-2.61 2.556c-.624 1.092-.936 2.34-.936 3.744 0 1.404.306 2.658.918 3.762a6.6 6.6 0 002.592 2.574c1.116.612 2.394.918 3.834.918.564 0 1.152-.066 1.764-.198a6.55 6.55 0 001.692-.594l.306.882a7.2 7.2 0 01-1.8.612 9.353 9.353 0 01-1.962.216c-1.632 0-3.078-.348-4.338-1.044a7.533 7.533 0 01-2.952-2.898C.985 11.41.637 10 .637 8.428c0-1.584.354-2.988 1.062-4.212a7.38 7.38 0 012.97-2.88C5.953.64 7.411.292 9.043.292zm-.126 11.754c.648 0 1.23-.15 1.746-.45.516-.3.924-.72 1.224-1.26.3-.552.45-1.188.45-1.908 0-.708-.15-1.332-.45-1.872a3.098 3.098 0 00-1.224-1.26 3.41 3.41 0 00-1.746-.45c-.66 0-1.254.15-1.782.45-.516.3-.924.72-1.224 1.26-.288.54-.432 1.164-.432 1.872 0 .708.144 1.338.432 1.89.3.54.708.966 1.224 1.278.528.3 1.122.45 1.782.45z" fill="#fff" fill-opacity=".5"/></svg>