<svg width="24" height="24" fill="none" xmlns="http://www.w3.org/2000/svg"><path d="M6.873 17.129c-1.845-1.31-3.305-3.014-4.13-4.09a1.693 1.693 0 010-2.077C4.236 9.013 7.818 5 12 5c1.876 0 3.63.807 5.13 1.874" stroke="#fff" stroke-opacity=".5" stroke-width="2" stroke-linecap="round" stroke-linejoin="round"/><path d="M10 18.704c.65.193 1.323.293 2 .296 4.182 0 7.764-4.013 9.257-5.962a1.694 1.694 0 00-.001-2.078A22.94 22.94 0 0019.57 9m-5.44.887a3 3 0 10-4.243 4.242l4.243-4.242zM4 20L20 4 4 20z" stroke="#fff" stroke-opacity=".5" stroke-width="2" stroke-linecap="round" stroke-linejoin="round"/></svg>