<svg width="20" height="19" fill="none" xmlns="http://www.w3.org/2000/svg"><rect x=".822" y=".467" width="18.489" height="18.489" rx="9.244" fill="#1A1A1C"/><path fill-rule="evenodd" clip-rule="evenodd" d="M10.067 5.089a.578.578 0 01.578.578v3.466h3.466a.578.578 0 110 1.156h-3.466v3.467a.578.578 0 01-1.156 0v-3.467H6.022a.578.578 0 010-1.156H9.49V5.667a.578.578 0 01.578-.578z" fill="#fff" fill-opacity=".8"/><path d="M10.067 4.973a.693.693 0 01.693.694v3.35h3.351a.693.693 0 110 1.388H10.76v3.35a.693.693 0 11-1.387 0v-3.35h-3.35a.693.693 0 01-.491-.204m4.535-5.228l-4.535 5.228m4.535-5.228a.693.693 0 00-.49.203m.49-.203l-.49.203m-4.045 5.025a.693.693 0 01.49-1.183h3.351V5.667c0-.184.073-.36.203-.49M5.532 10.2l4.044-5.025" stroke="#fff" stroke-opacity=".8" stroke-width=".231"/></svg>