<svg width="36" height="36" fill="none" xmlns="http://www.w3.org/2000/svg"><g clip-path="url(#clip0_25_30)"><path d="M27.329.328a1.125 1.125 0 011.593 0l6.75 6.75a1.127 1.127 0 010 1.593l-22.5 22.5a1.126 1.126 0 01-.378.248l-11.25 4.5A1.125 1.125 0 01.08 34.457l4.5-11.25c.056-.142.14-.27.248-.379l22.5-22.5zm-2.113 5.297l5.16 5.16 2.908-2.91-5.159-5.16-2.91 2.91zm3.568 6.75l-5.159-5.16L9 21.842v.659h1.125a1.125 1.125 0 011.125 1.125v1.125h1.125a1.125 1.125 0 011.125 1.125V27h.66l14.624-14.625zM6.822 24.019l-.238.238-3.438 8.598 8.597-3.438.238-.239a1.126 1.126 0 01-.73-1.053V27h-1.126A1.125 1.125 0 019 25.875V24.75H7.875a1.125 1.125 0 01-1.053-.731z" fill="#fff" fill-opacity=".8"/></g><defs><clipPath id="clip0_25_30"><path fill="#fff" d="M0 0h36v36H0z"/></clipPath></defs></svg>