<svg width="224" height="20" fill="none" xmlns="http://www.w3.org/2000/svg"><path d="M5.156 20V8h4.805v12H5.156zM.363 5.598V.805h14.403v4.793H.363zM15.715 20V.805h4.805V8h7.195v4.805H20.52V20h-4.805zm12.96-14.402V.805h12v4.793h-12zm0 14.402V8h12v4.805h-7.194v2.39h7.195V20h-12zm31.512 0a9.41 9.41 0 01-3.738-.762 9.798 9.798 0 01-3.058-2.039 9.8 9.8 0 01-2.04-3.058 9.41 9.41 0 01-.761-3.739 9.32 9.32 0 01.762-3.726c.507-1.188 1.187-2.207 2.039-3.059a9.696 9.696 0 013.058-2.05 9.41 9.41 0 013.739-.762h4.793v4.793h-4.793c-1.32 0-2.454.472-3.399 1.418-.937.937-1.406 2.066-1.406 3.386 0 1.32.469 2.45 1.406 3.387.945.938 2.078 1.406 3.398 1.406h4.794V20h-4.793zm10.477 0h-5.086l4.488-12h5.11l-1.793 4.805h3.879l-4.489-12h5.098L85.066 20h-5.109l-.89-2.402h-7.512L70.665 20zm14.988 0V8h7.207c.297 0 .57-.125.82-.375s.376-.523.376-.82c0-.297-.125-.57-.375-.82-.25-.258-.524-.387-.82-.387h-7.208V.805h7.207a5.84 5.84 0 013 .808 6.016 6.016 0 012.192 2.192 5.84 5.84 0 01.808 3 5.84 5.84 0 01-.808 3 6.016 6.016 0 01-2.192 2.191 5.84 5.84 0 01-3 .809h-2.402V20h-4.805zm14.11 0V.805h4.804V20h-4.804zm10.558 0V8h4.805v12h-4.805zm-4.793-14.402V.805h14.403v4.793h-14.403zM125.367 20h-5.086l4.489-12h5.109l-1.793 4.805h3.879l-4.488-12h5.097L139.77 20h-5.11l-.89-2.402h-7.512L125.367 20zm14.988 0V.805h4.805v14.39h7.195V20h-12zm27.68-7.195c-1.656 0-3.07-.586-4.242-1.758-1.172-1.172-1.758-2.586-1.758-4.242 0-1.657.586-3.07 1.758-4.242 1.172-1.172 2.586-1.758 4.242-1.758h7.195v4.793h-7.195c-.336 0-.621.117-.855.351-.235.235-.352.52-.352.856A1.183 1.183 0 00168.035 8v4.805zM163.23 20v-4.805h7.196A1.183 1.183 0 00171.633 14c0-.336-.117-.617-.352-.844a1.163 1.163 0 00-.855-.351V8c1.656 0 3.07.586 4.242 1.758 1.172 1.172 1.758 2.586 1.758 4.242 0 1.656-.586 3.07-1.758 4.242-1.172 1.172-2.586 1.758-4.242 1.758h-7.196zm14.11 0V.805h4.805V8h7.195v4.805h-7.195V20h-4.805zm17.508-17.883a9.192 9.192 0 014.769-1.312c1.703 0 3.293.437 4.77 1.312a9.724 9.724 0 013.515 3.516 9.196 9.196 0 011.313 4.77 9.196 9.196 0 01-1.313 4.769 9.817 9.817 0 01-3.515 3.527 9.261 9.261 0 01-4.77 1.301 9.255 9.255 0 01-4.769-1.3 9.908 9.908 0 01-3.528-3.528 9.26 9.26 0 01-1.3-4.77c0-1.703.433-3.293 1.3-4.77a9.814 9.814 0 013.528-3.515zm8.144 4.91c-.945-.953-2.07-1.43-3.375-1.43-1.305 0-2.433.477-3.387 1.43-.945.946-1.418 2.07-1.418 3.375 0 1.305.473 2.43 1.418 3.375.954.946 2.082 1.418 3.387 1.418 1.305 0 2.43-.472 3.375-1.418.946-.945 1.418-2.07 1.418-3.375 0-1.304-.472-2.43-1.418-3.375zM210.129 20V8h7.207c.297 0 .57-.125.82-.375s.375-.523.375-.82c0-.297-.125-.57-.375-.82-.25-.258-.523-.387-.82-.387h-7.207V.805h7.207a5.84 5.84 0 013 .808 6.013 6.013 0 012.191 2.192 5.84 5.84 0 01.809 3 5.84 5.84 0 01-.809 3 6.013 6.013 0 01-2.191 2.191 5.84 5.84 0 01-3 .809h-2.402V20h-4.805z" fill="#fff" fill-opacity=".8"/></svg>