<svg width="20" height="19" viewBox="0 0 20 19" fill="none" xmlns="http://www.w3.org/2000/svg">
<rect x="0.822266" y="0.466675" width="18.4889" height="18.4889" rx="9.24444" fill="#1A1A1C"/>
<path fill-rule="evenodd" clip-rule="evenodd" d="M10.0667 5.0889C10.2199 5.0889 10.3669 5.14977 10.4752 5.25813C10.5836 5.36648 10.6445 5.51344 10.6445 5.66668V9.13334H14.1111C14.2644 9.13334 14.4113 9.19422 14.5197 9.30257C14.628 9.41092 14.6889 9.55788 14.6889 9.71112C14.6889 9.86436 14.628 10.0113 14.5197 10.1197C14.4113 10.228 14.2644 10.2889 14.1111 10.2889H10.6445V13.7556C10.6445 13.9088 10.5836 14.0558 10.4752 14.1641C10.3669 14.2725 10.2199 14.3333 10.0667 14.3333C9.91344 14.3333 9.76648 14.2725 9.65813 14.1641C9.54978 14.0558 9.4889 13.9088 9.4889 13.7556V10.2889H6.02224C5.869 10.2889 5.72204 10.228 5.61369 10.1197C5.50533 10.0113 5.44446 9.86436 5.44446 9.71112C5.44446 9.55788 5.50533 9.41092 5.61369 9.30257C5.72204 9.19422 5.869 9.13334 6.02224 9.13334H9.4889V5.66668C9.4889 5.51344 9.54978 5.36648 9.65813 5.25813C9.76648 5.14977 9.91344 5.0889 10.0667 5.0889Z" fill="white" fill-opacity="0.8"/>
<path d="M10.0667 4.97334C10.2506 4.97334 10.4269 5.04639 10.5569 5.17642C10.687 5.30644 10.76 5.48279 10.76 5.66668V9.01779H14.1111C14.295 9.01779 14.4714 9.09083 14.6014 9.22086C14.7314 9.35088 14.8045 9.52724 14.8045 9.71112C14.8045 9.895 14.7314 10.0714 14.6014 10.2014C14.4714 10.3314 14.295 10.4045 14.1111 10.4045H10.76V13.7556C10.76 13.9394 10.687 14.1158 10.5569 14.2458C10.4269 14.3759 10.2506 14.4489 10.0667 14.4489C9.8828 14.4489 9.70645 14.3759 9.57642 14.2458C9.44639 14.1158 9.37335 13.9394 9.37335 13.7556V10.4045H6.02224C5.83835 10.4045 5.662 10.3314 5.53198 10.2014M10.0667 4.97334L5.53198 10.2014M10.0667 4.97334C9.8828 4.97334 9.70644 5.04639 9.57642 5.17641M10.0667 4.97334L9.57642 5.17641M5.53198 10.2014C5.40195 10.0714 5.3289 9.895 5.3289 9.71112C5.3289 9.52724 5.40195 9.35088 5.53198 9.22086C5.662 9.09083 5.83835 9.01779 6.02224 9.01779H9.37335V5.66668C9.37335 5.48279 9.44639 5.30644 9.57642 5.17641M5.53198 10.2014L9.57642 5.17641" stroke="white" stroke-opacity="0.8" stroke-width="0.231111"/>
</svg>
