<svg width="19" height="19" viewBox="0 0 19 19" fill="none" xmlns="http://www.w3.org/2000/svg">
<rect x="0.0444336" y="0.466675" width="18.4889" height="18.4889" rx="9.24444" fill="#1A1A1C"/>
<path fill-rule="evenodd" clip-rule="evenodd" d="M4.66663 9.71111C4.66663 9.55787 4.7275 9.41091 4.83585 9.30256C4.94421 9.1942 5.09117 9.13333 5.2444 9.13333H13.3333C13.4865 9.13333 13.6335 9.1942 13.7418 9.30256C13.8502 9.41091 13.9111 9.55787 13.9111 9.71111C13.9111 9.86435 13.8502 10.0113 13.7418 10.1197C13.6335 10.228 13.4865 10.2889 13.3333 10.2889H5.2444C5.09117 10.2889 4.94421 10.228 4.83585 10.1197C4.7275 10.0113 4.66663 9.86435 4.66663 9.71111Z" fill="white" fill-opacity="0.8"/>
<path d="M4.75414 9.22085C4.62412 9.35087 4.55107 9.52723 4.55107 9.71111C4.55107 9.89499 4.62412 10.0713 4.75414 10.2014C4.88417 10.3314 5.06052 10.4044 5.2444 10.4044H13.3333C13.5172 10.4044 13.6935 10.3314 13.8236 10.2014C13.9536 10.0713 14.0266 9.89499 14.0266 9.71111C14.0266 9.52723 13.9536 9.35087 13.8236 9.22085C13.6935 9.09082 13.5172 9.01778 13.3333 9.01778H5.2444C5.06052 9.01778 4.88417 9.09082 4.75414 9.22085Z" stroke="white" stroke-opacity="0.8" stroke-width="0.231111"/>
</svg>
