<svg width="36" height="36" viewBox="0 0 36 36" fill="none" xmlns="http://www.w3.org/2000/svg">
<g clip-path="url(#clip0_25_30)">
<path d="M27.3286 0.328497C27.4331 0.22373 27.5572 0.140608 27.6939 0.0838937C27.8306 0.0271791 27.9771 -0.00201416 28.1251 -0.00201416C28.273 -0.00201416 28.4196 0.0271791 28.5562 0.0838937C28.6929 0.140608 28.8171 0.22373 28.9216 0.328497L35.6716 7.0785C35.7763 7.183 35.8594 7.30714 35.9162 7.44382C35.9729 7.5805 36.0021 7.72702 36.0021 7.875C36.0021 8.02297 35.9729 8.1695 35.9162 8.30617C35.8594 8.44285 35.7763 8.56699 35.6716 8.6715L13.1716 31.1715C13.0636 31.2787 12.935 31.3629 12.7936 31.419L1.54355 35.919C1.33911 36.0008 1.11514 36.0209 0.899421 35.9766C0.683699 35.9324 0.485708 35.8258 0.329994 35.6701C0.174279 35.5143 0.0676886 35.3163 0.0234368 35.1006C-0.0208149 34.8849 -0.000782055 34.6609 0.081052 34.4565L4.58105 23.2065C4.63714 23.0651 4.72134 22.9365 4.82855 22.8285L27.3286 0.328497ZM25.2158 5.625L30.3751 10.7842L33.2843 7.875L28.1251 2.71575L25.2158 5.625ZM28.7843 12.375L23.6251 7.21575L9.00005 21.8407V22.5H10.1251C10.4234 22.5 10.7096 22.6185 10.9205 22.8295C11.1315 23.0405 11.2501 23.3266 11.2501 23.625V24.75H12.3751C12.6734 24.75 12.9596 24.8685 13.1705 25.0795C13.3815 25.2905 13.5001 25.5766 13.5001 25.875V27H14.1593L28.7843 12.375ZM6.82205 24.0187L6.58355 24.2572L3.14555 32.8545L11.7428 29.4165L11.9813 29.178C11.7667 29.0978 11.5817 28.954 11.451 28.7659C11.3203 28.5777 11.2502 28.3541 11.2501 28.125V27H10.1251C9.82668 27 9.54054 26.8815 9.32956 26.6705C9.11858 26.4595 9.00005 26.1734 9.00005 25.875V24.75H7.87505C7.64596 24.7498 7.42237 24.6797 7.2342 24.549C7.04603 24.4184 6.90224 24.2334 6.82205 24.0187Z" fill="white" fill-opacity="0.8"/>
</g>
<defs>
<clipPath id="clip0_25_30">
<rect width="36" height="36" fill="white"/>
</clipPath>
</defs>
</svg>
