<svg width="48" height="48" viewBox="0 0 48 48" fill="none" xmlns="http://www.w3.org/2000/svg">
<path d="M24.12 27.4533C23.4022 27.4588 22.7068 27.7044 22.1449 28.1511C21.5829 28.5978 21.1867 29.2199 21.0195 29.918C20.8522 30.6161 20.9236 31.3501 21.2221 32.003C21.5207 32.6558 22.0292 33.1899 22.6667 33.52V37.3333H25.3334V33.64C26.0218 33.3579 26.591 32.8456 26.9439 32.1906C27.2967 31.5355 27.4113 30.7784 27.2681 30.0482C27.1249 29.3181 26.7328 28.6603 26.1587 28.1871C25.5846 27.7139 24.8641 27.4545 24.12 27.4533V27.4533Z" fill="white" fill-opacity="0.8"/>
<path d="M34.6667 20V14.2933C34.724 11.4025 33.6338 8.60672 31.6348 6.51772C29.6357 4.42872 26.8906 3.21662 24 3.14667C21.1095 3.21662 18.3644 4.42872 16.3653 6.51772C14.3663 8.60672 13.2761 11.4025 13.3334 14.2933V20H9.33337V42.6667C9.33337 43.3739 9.61433 44.0522 10.1144 44.5523C10.6145 45.0524 11.2928 45.3333 12 45.3333H36C36.7073 45.3333 37.3856 45.0524 37.8857 44.5523C38.3858 44.0522 38.6667 43.3739 38.6667 42.6667V20H34.6667ZM16 14.2933C15.9426 12.1097 16.7517 9.99198 18.2507 8.40303C19.7497 6.81409 21.8167 5.88304 24 5.81333C26.1834 5.88304 28.2504 6.81409 29.7494 8.40303C31.2484 9.99198 32.0575 12.1097 32 14.2933V20H16V14.2933ZM12 42.6667V22.6667H36V42.6667H12Z" fill="white" fill-opacity="0.8"/>
</svg>
