<svg width="18" height="17" viewBox="0 0 18 17" fill="none" xmlns="http://www.w3.org/2000/svg">
<path d="M9.04317 0.291999C10.6512 0.291999 12.0852 0.627999 13.3452 1.3C14.6172 1.96 15.6072 2.896 16.3152 4.108C17.0232 5.308 17.3772 6.682 17.3772 8.23C17.3772 9.754 17.1132 10.948 16.5852 11.812C16.0572 12.664 15.3252 13.09 14.3892 13.09C13.8012 13.09 13.3212 12.916 12.9492 12.568C12.5892 12.22 12.3912 11.74 12.3552 11.128C11.9952 11.752 11.5032 12.238 10.8792 12.586C10.2552 12.922 9.54717 13.09 8.75517 13.09C7.91517 13.09 7.15317 12.892 6.46917 12.496C5.79717 12.088 5.26317 11.53 4.86717 10.822C4.48317 10.114 4.29117 9.316 4.29117 8.428C4.29117 7.54 4.48317 6.748 4.86717 6.052C5.26317 5.344 5.79717 4.792 6.46917 4.396C7.15317 4 7.91517 3.802 8.75517 3.802C9.52317 3.802 10.2132 3.97 10.8252 4.306C11.4492 4.63 11.9472 5.092 12.3192 5.692V3.874H13.4892V10.696C13.4892 11.176 13.5912 11.524 13.7952 11.74C13.9992 11.956 14.2692 12.064 14.6052 12.064C15.1692 12.064 15.6132 11.728 15.9372 11.056C16.2732 10.384 16.4412 9.448 16.4412 8.248C16.4412 6.856 16.1292 5.632 15.5052 4.576C14.8812 3.508 14.0052 2.68 12.8772 2.092C11.7612 1.504 10.4832 1.21 9.04317 1.21C7.59117 1.21 6.30117 1.516 5.17317 2.128C4.05717 2.728 3.18717 3.58 2.56317 4.684C1.93917 5.776 1.62717 7.024 1.62717 8.428C1.62717 9.832 1.93317 11.086 2.54517 12.19C3.16917 13.294 4.03317 14.152 5.13717 14.764C6.25317 15.376 7.53117 15.682 8.97117 15.682C9.53517 15.682 10.1232 15.616 10.7352 15.484C11.3592 15.352 11.9232 15.154 12.4272 14.89L12.7332 15.772C12.2172 16.036 11.6172 16.24 10.9332 16.384C10.2612 16.528 9.60717 16.6 8.97117 16.6C7.33917 16.6 5.89317 16.252 4.63317 15.556C3.37317 14.86 2.38917 13.894 1.68117 12.658C0.985172 11.41 0.637172 10 0.637172 8.428C0.637172 6.844 0.991172 5.44 1.69917 4.216C2.40717 2.98 3.39717 2.02 4.66917 1.336C5.95317 0.64 7.41117 0.291999 9.04317 0.291999ZM8.91717 12.046C9.56517 12.046 10.1472 11.896 10.6632 11.596C11.1792 11.296 11.5872 10.876 11.8872 10.336C12.1872 9.784 12.3372 9.148 12.3372 8.428C12.3372 7.72 12.1872 7.096 11.8872 6.556C11.5872 6.004 11.1792 5.584 10.6632 5.296C10.1472 4.996 9.56517 4.846 8.91717 4.846C8.25717 4.846 7.66317 4.996 7.13517 5.296C6.61917 5.596 6.21117 6.016 5.91117 6.556C5.62317 7.096 5.47917 7.72 5.47917 8.428C5.47917 9.136 5.62317 9.766 5.91117 10.318C6.21117 10.858 6.61917 11.284 7.13517 11.596C7.66317 11.896 8.25717 12.046 8.91717 12.046Z" fill="white" fill-opacity="0.5"/>
</svg>
