<svg width="224" height="20" viewBox="0 0 224 20" fill="none" xmlns="http://www.w3.org/2000/svg">
<path d="M5.15625 20V8H9.96094V20H5.15625ZM0.363281 5.59766V0.804688H14.7656V5.59766H0.363281ZM15.7148 20V0.804688H20.5195V8H27.7148V12.8047H20.5195V20H15.7148ZM28.6758 5.59766V0.804688H40.6758V5.59766H28.6758ZM28.6758 20V8H40.6758V12.8047H33.4805V15.1953H40.6758V20H28.6758ZM60.1875 20C58.8828 20 57.6367 19.7461 56.4492 19.2383C55.2695 18.7305 54.25 18.0508 53.3906 17.1992C52.5391 16.3398 51.8594 15.3203 51.3516 14.1406C50.8438 12.9531 50.5898 11.707 50.5898 10.4023C50.5898 9.09766 50.8438 7.85547 51.3516 6.67578C51.8594 5.48828 52.5391 4.46875 53.3906 3.61719C54.25 2.75781 55.2695 2.07422 56.4492 1.56641C57.6367 1.05859 58.8828 0.804688 60.1875 0.804688H64.9805V5.59766H60.1875C58.8672 5.59766 57.7344 6.07031 56.7891 7.01562C55.8516 7.95312 55.3828 9.08203 55.3828 10.4023C55.3828 11.7227 55.8516 12.8516 56.7891 13.7891C57.7344 14.7266 58.8672 15.1953 60.1875 15.1953H64.9805V20H60.1875ZM70.6641 20H65.5781L70.0664 8H75.1758L73.3828 12.8047H77.2617L72.7734 0.804688H77.8711L85.0664 20H79.957L79.0664 17.5977H71.5547L70.6641 20ZM85.6523 20V8H92.8594C93.1562 8 93.4297 7.875 93.6797 7.625C93.9297 7.375 94.0547 7.10156 94.0547 6.80469C94.0547 6.50781 93.9297 6.23438 93.6797 5.98438C93.4297 5.72656 93.1562 5.59766 92.8594 5.59766H85.6523V0.804688H92.8594C93.9375 0.804688 94.9375 1.07422 95.8594 1.61328C96.7812 2.15234 97.5117 2.88281 98.0508 3.80469C98.5898 4.72656 98.8594 5.72656 98.8594 6.80469C98.8594 7.88281 98.5898 8.88281 98.0508 9.80469C97.5117 10.7266 96.7812 11.457 95.8594 11.9961C94.9375 12.5352 93.9375 12.8047 92.8594 12.8047H90.457V20H85.6523ZM99.7617 20V0.804688H104.566V20H99.7617ZM110.32 20V8H115.125V20H110.32ZM105.527 5.59766V0.804688H119.93V5.59766H105.527ZM125.367 20H120.281L124.77 8H129.879L128.086 12.8047H131.965L127.477 0.804688H132.574L139.77 20H134.66L133.77 17.5977H126.258L125.367 20ZM140.355 20V0.804688H145.16V15.1953H152.355V20H140.355ZM168.035 12.8047C166.379 12.8047 164.965 12.2188 163.793 11.0469C162.621 9.875 162.035 8.46094 162.035 6.80469C162.035 5.14844 162.621 3.73438 163.793 2.5625C164.965 1.39062 166.379 0.804688 168.035 0.804688H175.23V5.59766H168.035C167.699 5.59766 167.414 5.71484 167.18 5.94922C166.945 6.18359 166.828 6.46875 166.828 6.80469C166.828 7.14062 166.945 7.42578 167.18 7.66016C167.414 7.88672 167.699 8 168.035 8V12.8047ZM163.23 20V15.1953H170.426C170.762 15.1953 171.047 15.082 171.281 14.8555C171.516 14.6211 171.633 14.3359 171.633 14C171.633 13.6641 171.516 13.3828 171.281 13.1562C171.047 12.9219 170.762 12.8047 170.426 12.8047V8C172.082 8 173.496 8.58594 174.668 9.75781C175.84 10.9297 176.426 12.3438 176.426 14C176.426 15.6562 175.84 17.0703 174.668 18.2422C173.496 19.4141 172.082 20 170.426 20H163.23ZM177.34 20V0.804688H182.145V8H189.34V12.8047H182.145V20H177.34ZM194.848 2.11719C196.324 1.24219 197.914 0.804688 199.617 0.804688C201.32 0.804688 202.91 1.24219 204.387 2.11719C205.863 2.98438 207.035 4.15625 207.902 5.63281C208.777 7.10938 209.215 8.69922 209.215 10.4023C209.215 12.1055 208.777 13.6953 207.902 15.1719C207.035 16.6484 205.863 17.8242 204.387 18.6992C202.91 19.5664 201.32 20 199.617 20C197.914 20 196.324 19.5664 194.848 18.6992C193.371 17.8242 192.195 16.6484 191.32 15.1719C190.453 13.6953 190.02 12.1055 190.02 10.4023C190.02 8.69922 190.453 7.10938 191.32 5.63281C192.195 4.15625 193.371 2.98438 194.848 2.11719ZM202.992 7.02734C202.047 6.07422 200.922 5.59766 199.617 5.59766C198.312 5.59766 197.184 6.07422 196.23 7.02734C195.285 7.97266 194.812 9.09766 194.812 10.4023C194.812 11.707 195.285 12.832 196.23 13.7773C197.184 14.7227 198.312 15.1953 199.617 15.1953C200.922 15.1953 202.047 14.7227 202.992 13.7773C203.938 12.832 204.41 11.707 204.41 10.4023C204.41 9.09766 203.938 7.97266 202.992 7.02734ZM210.129 20V8H217.336C217.633 8 217.906 7.875 218.156 7.625C218.406 7.375 218.531 7.10156 218.531 6.80469C218.531 6.50781 218.406 6.23438 218.156 5.98438C217.906 5.72656 217.633 5.59766 217.336 5.59766H210.129V0.804688H217.336C218.414 0.804688 219.414 1.07422 220.336 1.61328C221.258 2.15234 221.988 2.88281 222.527 3.80469C223.066 4.72656 223.336 5.72656 223.336 6.80469C223.336 7.88281 223.066 8.88281 222.527 9.80469C221.988 10.7266 221.258 11.457 220.336 11.9961C219.414 12.5352 218.414 12.8047 217.336 12.8047H214.934V20H210.129Z" fill="white" fill-opacity="0.8"/>
</svg>
